<svg width="18" height="17" viewBox="0 0 18 17" xmlns="http://www.w3.org/2000/svg">
<path fill-rule="evenodd" clip-rule="evenodd" d="M3 0H15C16.6569 0 18 1.34315 18 3V9.99658C18 11.6534 16.6569 12.9966 15 12.9966H4.6L0 17V3C0 1.34315 1.34315 0 3 0ZM3.85157 10.9966H15C15.5523 10.9966 16 10.5489 16 9.99658V3C16 2.44772 15.5523 2 15 2H3C2.44772 2 2 2.44772 2 3V12.608L3.85157 10.9966ZM5.5 7.86C4.76546 7.86 4.17 7.26454 4.17 6.53C4.17 5.79546 4.76546 5.2 5.5 5.2C6.23454 5.2 6.83 5.79546 6.83 6.53C6.83 7.26454 6.23454 7.86 5.5 7.86ZM9 7.86C8.26546 7.86 7.67 7.26454 7.67 6.53C7.67 5.79546 8.26546 5.2 9 5.2C9.73454 5.2 10.33 5.79546 10.33 6.53C10.33 7.26454 9.73454 7.86 9 7.86ZM12.5 7.86C11.7655 7.86 11.17 7.26454 11.17 6.53C11.17 5.79546 11.7655 5.2 12.5 5.2C13.2345 5.2 13.83 5.79546 13.83 6.53C13.83 7.26454 13.2345 7.86 12.5 7.86Z" />
</svg>
