<svg width="32" height="32" viewBox="0 0 32 32" fill="none" xmlns="http://www.w3.org/2000/svg"><path fill-rule="evenodd" clip-rule="evenodd" d="M16.0002 20.9874C15.9956 20.7116 16.0952 20.4458 16.2758 20.252L19.7343 16.4477L16.2758 12.7434C16.0111 12.4491 15.9337 12.0114 16.0794 11.6315C16.225 11.2516 16.5655 11.003 16.9441 11.0001C17.1913 10.9956 17.4295 11.1005 17.6041 11.2907L21.7225 15.7214C21.9026 15.9118 22.0024 16.1747 21.9981 16.4477C22.015 16.7294 21.9173 17.0049 21.7308 17.2013L17.6041 21.7138C17.2309 22.0954 16.6489 22.0954 16.2758 21.7138C16.0997 21.5204 16.0006 21.2595 16.0002 20.9874ZM10.0002 20.9874C9.99556 20.7116 10.0952 20.4458 10.2758 20.252L13.7343 16.4477L10.2758 12.7434C10.0111 12.4491 9.93375 12.0114 10.0794 11.6315C10.225 11.2516 10.5655 11.003 10.9441 11.0001C11.1913 10.9956 11.4295 11.1005 11.6041 11.2907L15.7225 15.7214C15.9026 15.9118 16.0024 16.1747 15.9981 16.4477C16.015 16.7294 15.9173 17.0049 15.7308 17.2013L11.6041 21.7138C11.2309 22.0954 10.6489 22.0954 10.2758 21.7138C10.0997 21.5204 10.0006 21.2595 10.0002 20.9874Z" fill="#2D3B4E" fill-opacity="0.5"/>
</svg>
