<svg width="20" height="20" viewBox="0 0 20 20" fill="none" xmlns="http://www.w3.org/2000/svg">
<mask id="path-1-inside-1_3_945" fill="white">
<path fill-rule="evenodd" clip-rule="evenodd" d="M3 2C2.44772 2 2 2.44772 2 3C2 3.55228 2.44772 4 3 4H17C17.5523 4 18 3.55228 18 3C18 2.44772 17.5523 2 17 2H3ZM3 9C2.44772 9 2 9.44772 2 10C2 10.5523 2.44772 11 3 11H17C17.5523 11 18 10.5523 18 10C18 9.44772 17.5523 9 17 9H3ZM2 17C2 16.4477 2.44772 16 3 16H17C17.5523 16 18 16.4477 18 17C18 17.5523 17.5523 18 17 18H3C2.44772 18 2 17.5523 2 17Z"/>
</mask>
<path d="M3 3V1C1.89543 1 1 1.89543 1 3H3ZM3 3H1C1 4.10457 1.89543 5 3 5V3ZM17 3H3V5H17V3ZM17 3V5C18.1046 5 19 4.10457 19 3H17ZM17 3H19C19 1.89543 18.1046 1 17 1V3ZM3 3H17V1H3V3ZM3 10V8C1.89543 8 1 8.89543 1 10H3ZM3 10H1C1 11.1046 1.89543 12 3 12V10ZM17 10H3V12H17V10ZM17 10V12C18.1046 12 19 11.1046 19 10H17ZM17 10H19C19 8.89543 18.1046 8 17 8V10ZM3 10H17V8H3V10ZM3 15C1.89543 15 1 15.8954 1 17H3V15ZM17 15H3V17H17V15ZM19 17C19 15.8954 18.1046 15 17 15V17H19ZM17 19C18.1046 19 19 18.1046 19 17H17V19ZM3 19H17V17H3V19ZM1 17C1 18.1046 1.89543 19 3 19V17H1Z" fill="#2D3B4E" mask="url(#path-1-inside-1_3_945)"/>
</svg>
