<svg width="32" height="32" viewBox="0 0 32 32" xmlns="http://www.w3.org/2000/svg">
<path fill-rule="evenodd" clip-rule="evenodd" d="M16 28C9.37258 28 4 22.6274 4 16C4 9.37258 9.37258 4 16 4C22.6274 4 28 9.37258 28 16C28 22.6274 22.6274 28 16 28ZM13.2191 20.3753L15.9194 17H14C13.1615 17 12.6953 16.0301 13.2191 15.3753L17.2191 10.3753C17.5641 9.94404 18.1934 9.87412 18.6247 10.2191C19.056 10.5641 19.1259 11.1934 18.7809 11.6247L16.0806 15H18C18.8385 15 19.3047 15.9699 18.7809 16.6247L14.7809 21.6247C14.4359 22.056 13.8066 22.1259 13.3753 21.7809C12.944 21.4359 12.8741 20.8066 13.2191 20.3753ZM26 16C26 21.5228 21.5228 26 16 26C10.4772 26 6 21.5228 6 16C6 10.4772 10.4772 6 16 6C21.5228 6 26 10.4772 26 16Z" />
</svg>
