<svg width="166" height="48" viewBox="0 0 166 48" fill="none" xmlns="http://www.w3.org/2000/svg">
<g clip-path="url(#clip0_2_2349)">
<path d="M59.81 41H60.971V38.417H63.086V37.418H60.971V35.609H63.482V34.61H59.81V41ZM65.0327 37.76C65.0327 39.641 66.4547 41.108 68.3357 41.108C70.2167 41.108 71.6387 39.641 71.6387 37.76C71.6387 35.933 70.2167 34.502 68.3357 34.502C66.4547 34.502 65.0327 35.933 65.0327 37.76ZM66.2297 37.76C66.2297 36.5 67.1657 35.564 68.3357 35.564C69.5057 35.564 70.4417 36.5 70.4417 37.76C70.4417 39.074 69.5057 40.046 68.3357 40.046C67.1657 40.046 66.2297 39.074 66.2297 37.76ZM73.7213 41H74.8823V38.615H75.9983L77.2673 41H78.5633L77.2493 38.615C77.1233 38.39 77.0333 38.3 77.0333 38.3V38.282C77.7083 38.012 78.1133 37.301 78.1133 36.536C78.1133 35.69 77.7083 35.078 77.0693 34.79C76.7903 34.664 76.4753 34.61 75.7823 34.61H73.7213V41ZM74.8823 37.607V35.609H75.7643C76.6733 35.609 76.9343 35.987 76.9343 36.599C76.9343 37.238 76.5473 37.607 75.9263 37.607H74.8823ZM83.6336 41H84.7946V38.795H86.0996C87.2966 38.795 88.1336 37.931 88.1336 36.689C88.1336 35.447 87.2966 34.61 86.0996 34.61H83.6336V41ZM84.7946 37.787V35.609H85.9016C86.5586 35.609 86.9546 36.032 86.9546 36.689C86.9546 37.355 86.5586 37.787 85.8836 37.787H84.7946ZM93.5856 41H94.7826L92.5326 34.61H91.3176L89.0676 41H90.2646L90.8046 39.362H93.0456L93.5856 41ZM91.9386 35.717C91.9386 35.717 92.0736 36.347 92.1906 36.707L92.7576 38.417H91.0836L91.6506 36.707C91.7766 36.347 91.9206 35.717 91.9206 35.717H91.9386ZM96.4991 41H97.6601V38.615H98.7761L100.045 41H101.341L100.027 38.615C99.9011 38.39 99.8111 38.3 99.8111 38.3V38.282C100.486 38.012 100.891 37.301 100.891 36.536C100.891 35.69 100.486 35.078 99.8471 34.79C99.5681 34.664 99.2531 34.61 98.5601 34.61H96.4991V41ZM97.6601 37.607V35.609H98.5421C99.4511 35.609 99.7121 35.987 99.7121 36.599C99.7121 37.238 99.3251 37.607 98.7041 37.607H97.6601ZM104.646 41H105.807V35.609H107.904V34.61H102.549V35.609H104.646V41ZM109.646 41H110.807V37.319C110.807 36.941 110.744 36.329 110.744 36.329H110.762C110.762 36.329 111.05 36.95 111.293 37.319L113.714 41H114.866V34.61H113.714V38.3C113.714 38.678 113.777 39.29 113.777 39.29H113.759C113.759 39.29 113.471 38.669 113.228 38.3L110.807 34.61H109.646V41ZM117.384 41H121.353V40.001H118.545V38.282H120.696V37.283H118.545V35.609H121.209V34.61H117.384V41ZM123.46 41H124.621V38.615H125.737L127.006 41H128.302L126.988 38.615C126.862 38.39 126.772 38.3 126.772 38.3V38.282C127.447 38.012 127.852 37.301 127.852 36.536C127.852 35.69 127.447 35.078 126.808 34.79C126.529 34.664 126.214 34.61 125.521 34.61H123.46V41ZM124.621 37.607V35.609H125.503C126.412 35.609 126.673 35.987 126.673 36.599C126.673 37.238 126.286 37.607 125.665 37.607H124.621ZM129.798 40.235C129.798 40.235 130.581 41.108 132.003 41.108C133.335 41.108 134.109 40.253 134.109 39.236C134.109 37.193 131.103 37.472 131.103 36.338C131.103 35.888 131.526 35.573 132.066 35.573C132.867 35.573 133.479 36.131 133.479 36.131L133.983 35.186C133.983 35.186 133.335 34.502 132.075 34.502C130.851 34.502 129.933 35.294 129.933 36.356C129.933 38.318 132.948 38.12 132.948 39.263C132.948 39.785 132.507 40.037 132.021 40.037C131.121 40.037 130.428 39.362 130.428 39.362L129.798 40.235Z" fill="#2D3B4E"/>
<mask id="mask0_2_2349" style="mask-type:luminance" maskUnits="userSpaceOnUse" x="59" y="6" width="107" height="19">
<path fill-rule="evenodd" clip-rule="evenodd" d="M59.0297 8.56648H60.6188C60.6323 8.56653 60.644 8.57559 60.6474 8.58853L64.4422 23.7631C64.4452 23.7763 64.4572 23.7855 64.4708 23.7852H68.1268C68.14 23.7853 68.1516 23.7767 68.1554 23.7642L71.1461 12.6258C71.2813 12.0941 71.3741 11.5527 71.4237 11.0067H71.4989C71.5482 11.5528 71.641 12.0942 71.7764 12.6258L74.7703 23.7631C74.7737 23.7755 74.785 23.7841 74.7979 23.7841H78.456C78.4695 23.7841 78.4812 23.775 78.4846 23.7621L82.2794 8.58748C82.2828 8.57454 82.2945 8.56548 82.308 8.56543H83.8971C83.9135 8.56543 83.9268 8.55226 83.9268 8.53603V6.12838C83.9268 6.11214 83.9135 6.09898 83.8971 6.09898H76.9728C76.9564 6.09898 76.9432 6.11214 76.9432 6.12838V8.53603C76.9432 8.55226 76.9564 8.56543 76.9728 8.56543H78.9984C79.0073 8.56554 79.0157 8.56962 79.0213 8.57654C79.0268 8.58346 79.0289 8.59249 79.027 8.60113L76.7164 18.6538C76.6172 19.1641 76.55 19.6799 76.5152 20.1984H76.4092C76.357 19.6772 76.2642 19.1608 76.1317 18.6538L72.785 6.12208C72.7816 6.10914 72.7699 6.10008 72.7564 6.10003H70.164C70.1505 6.10008 70.1388 6.10914 70.1354 6.12208L66.7888 18.6538C66.6562 19.1608 66.5634 19.6772 66.5112 20.1984H66.4052C66.3701 19.6799 66.3029 19.1641 66.204 18.6538L63.8923 8.60113C63.8904 8.59249 63.8925 8.58346 63.8981 8.57654C63.9036 8.56962 63.912 8.56554 63.9209 8.56543H65.955C65.9714 8.56543 65.9847 8.55226 65.9847 8.53603V6.12838C65.9856 6.12005 65.9828 6.11173 65.9772 6.10552C65.9715 6.0993 65.9634 6.09578 65.955 6.09583H59.0297C59.0218 6.09583 59.0143 6.09892 59.0087 6.10444C59.0031 6.10995 59 6.11743 59 6.12523V8.53288C59 8.54067 59.0031 8.54815 59.0087 8.55366C59.0143 8.55918 59.0218 8.56228 59.0297 8.56228V8.56648ZM82.896 17.4358C82.8569 19.2457 83.5788 20.9901 84.8888 22.2515C86.1989 23.5129 87.9791 24.1776 89.8033 24.0865C91.68 24.1033 93.5062 23.4843 94.9795 22.332C94.9883 22.3221 94.9883 22.3072 94.9795 22.2973L93.7729 20.106C93.7696 20.0984 93.763 20.0926 93.755 20.0904C93.747 20.0881 93.7384 20.0896 93.7316 20.0944C92.6639 20.9062 91.3683 21.3692 90.0236 21.4195C89.0439 21.4619 88.0873 21.1166 87.3646 20.4596C86.6419 19.8026 86.2124 18.8878 86.1706 17.9167C86.1697 17.9083 86.1724 17.8999 86.178 17.8935C86.1836 17.8871 86.1917 17.8834 86.2002 17.8831H95.0378C95.0519 17.8838 95.0643 17.8739 95.0664 17.86C95.0791 17.7351 95.1395 17.145 95.1395 16.81C95.1395 13.45 93.1266 10.782 89.4187 10.782C87.6377 10.7235 85.9142 11.4116 84.6715 12.6775C83.4288 13.9434 82.7819 15.6697 82.8896 17.4327L82.896 17.4358ZM86.2861 16.0162C86.2769 16.0161 86.2682 16.0119 86.2625 16.0048C86.2567 15.9977 86.2545 15.9884 86.2564 15.9795C86.4305 14.4153 87.7621 13.2302 89.3499 13.2264C90.0559 13.2472 90.7225 13.554 91.194 14.0753C91.6656 14.5967 91.9008 15.2868 91.8448 15.9847C91.8448 16.0017 91.8312 16.0157 91.814 16.0162H86.2861ZM96.7096 19.7521C96.7096 23.2171 98.5995 23.887 100.642 23.887C101.022 23.8863 101.401 23.8624 101.778 23.8156C101.792 23.814 101.802 23.8014 101.801 23.7873V21.2673C101.801 21.2673 101.549 21.2914 101.196 21.2914C100.137 21.2914 99.8857 20.694 99.8857 19.5484V6.12628C99.8857 6.11004 99.8724 6.09688 99.856 6.09688H94.7475C94.7312 6.09688 94.7179 6.11004 94.7179 6.12628V8.43628C94.7179 8.45251 94.7312 8.46568 94.7475 8.46568H96.6778C96.6942 8.46568 96.7074 8.47884 96.7074 8.49508L96.7096 19.7521ZM102.079 17.461C102.079 21.5707 105.406 24.0865 109.162 24.0865C111.107 24.0803 112.987 23.388 114.465 22.1335C114.474 22.1244 114.477 22.1103 114.47 22.0989L113.362 19.9086C113.359 19.9006 113.352 19.8946 113.343 19.8923C113.335 19.8901 113.326 19.8918 113.319 19.897C112.194 20.8193 110.796 21.354 109.338 21.4206C108.245 21.4767 107.18 21.0683 106.41 20.2979C105.64 19.5274 105.238 18.4679 105.305 17.3854C105.211 16.3514 105.574 15.3279 106.298 14.5783C107.023 13.8286 108.039 13.4261 109.086 13.4742C110.169 13.4742 111.481 13.8721 111.481 14.7195V15.5374C111.481 15.5537 111.494 15.5668 111.511 15.5668H114.225C114.241 15.5668 114.254 15.5537 114.254 15.5374V13.8228C114.254 11.581 111.129 10.7841 108.986 10.7841C107.165 10.7212 105.398 11.3987 104.094 12.6594C102.789 13.9201 102.062 15.6544 102.08 17.46L102.079 17.461ZM114.884 17.4358C114.89 19.2627 115.651 21.0074 116.989 22.2639C118.327 23.5203 120.126 24.179 121.967 24.0865C125.4 24.2333 128.401 21.8116 128.952 18.4501C129.186 16.4893 128.557 14.5233 127.224 13.0554C125.892 11.5875 123.985 10.7602 121.993 10.7851C120.149 10.6889 118.345 11.3455 117.002 12.602C115.659 13.8584 114.893 15.6053 114.884 17.4358ZM118.136 17.4358C118.092 16.4011 118.476 15.3934 119.199 14.6459C119.922 13.8983 120.922 13.4755 121.967 13.4752C123.008 13.4805 124.002 13.9057 124.72 14.6529C125.438 15.4001 125.819 16.4049 125.773 17.4358C125.823 18.468 125.444 19.4753 124.725 20.2236C124.006 20.9718 123.009 21.3956 121.967 21.3964C120.921 21.4004 119.919 20.9789 119.194 20.2304C118.47 19.4818 118.088 18.4717 118.136 17.4358ZM129.811 23.7873H136.659C136.675 23.7873 136.688 23.7741 136.688 23.7579V21.4479C136.688 21.4316 136.675 21.4185 136.659 21.4185H134.876C134.859 21.4185 134.846 21.4053 134.846 21.3891V18.3294C134.846 16.0383 135.88 13.6716 138.148 13.6716C139.661 13.6716 139.888 14.8423 139.888 16.2126V23.7558C139.888 23.772 139.901 23.7852 139.917 23.7852H144.897C144.913 23.7852 144.926 23.772 144.926 23.7558V21.4458C144.926 21.4295 144.913 21.4164 144.897 21.4164H143.096C143.088 21.4164 143.08 21.4133 143.075 21.4078C143.069 21.4023 143.066 21.3948 143.066 21.387V18.1782C143.066 15.8367 144.15 13.6695 146.343 13.6695C147.826 13.6695 148.107 14.7657 148.107 16.2105V23.7537C148.107 23.7699 148.12 23.7831 148.136 23.7831H153.144C153.16 23.7831 153.174 23.7699 153.174 23.7537V21.4437C153.174 21.4274 153.16 21.4143 153.144 21.4143H151.343C151.327 21.4143 151.313 21.4011 151.313 21.3849V15.6099C151.313 12.2719 149.775 10.7799 147.182 10.7799C145.282 10.7882 143.55 11.8614 142.711 13.5508H142.656C142.36 11.8528 140.81 10.656 139.076 10.7862C137.204 10.8721 135.525 11.9572 134.691 13.6212H134.641C134.672 13.4401 134.689 13.2568 134.691 13.0731V12.5008C134.691 11.6041 134.136 11.0812 133.002 11.0812H129.684C129.667 11.0812 129.654 11.0944 129.654 11.1106V13.4206C129.654 13.4369 129.667 13.45 129.684 13.45H131.061C131.216 13.4497 131.364 13.5105 131.473 13.6188C131.583 13.7271 131.645 13.8742 131.645 14.0275V21.3922C131.645 21.4 131.641 21.4075 131.636 21.413C131.63 21.4185 131.623 21.4216 131.615 21.4216H129.814C129.797 21.4216 129.784 21.4348 129.784 21.451V23.761C129.784 23.7773 129.797 23.7904 129.814 23.7904L129.811 23.7873ZM153.374 17.4358C153.335 19.2455 154.057 20.9897 155.367 22.2511C156.676 23.5124 158.456 24.1773 160.28 24.0865C162.157 24.1036 163.983 23.4845 165.457 22.332C165.465 22.3221 165.465 22.3072 165.457 22.2973L164.249 20.106C164.246 20.0984 164.239 20.0926 164.231 20.0904C164.223 20.0881 164.214 20.0896 164.207 20.0944C163.14 20.9061 161.844 21.3692 160.5 21.4195C159.52 21.4622 158.563 21.117 157.84 20.46C157.117 19.8029 156.687 18.888 156.645 17.9167C156.645 17.9082 156.648 17.8998 156.654 17.8935C156.659 17.8871 156.668 17.8834 156.676 17.8831H165.514C165.528 17.8838 165.54 17.8739 165.542 17.86C165.555 17.7351 165.615 17.145 165.615 16.81C165.615 13.45 163.603 10.782 159.895 10.782C158.114 10.7235 156.39 11.4116 155.147 12.6775C153.905 13.9434 153.258 15.6697 153.366 17.4327L153.374 17.4358ZM156.764 16.0162C156.755 16.0158 156.747 16.0115 156.741 16.0044C156.735 15.9974 156.733 15.9883 156.734 15.9795C156.909 14.4153 158.24 13.2302 159.828 13.2264C160.534 13.2475 161.2 13.5544 161.671 14.0757C162.143 14.597 162.378 15.287 162.322 15.9847C162.322 15.993 162.319 16.001 162.313 16.0069C162.307 16.0129 162.299 16.0162 162.291 16.0162H156.764Z" fill="white"/>
</mask>
<g mask="url(#mask0_2_2349)">
<mask id="mask1_2_2349" style="mask-type:luminance" maskUnits="userSpaceOnUse" x="59" y="6" width="174" height="57">
<path fill-rule="evenodd" clip-rule="evenodd" d="M59 62.9249H232.743V6.09998H59V62.9249Z" fill="white"/>
</mask>
<g mask="url(#mask1_2_2349)">
<path d="M58.5657 5.66528H166.058V24.5107H58.5657V5.66528Z" fill="#2D3A4E"/>
</g>
</g>
</g>
<path fill-rule="evenodd" clip-rule="evenodd" d="M24.0456 48C12.6054 47.9922 2.7527 39.9417 0.481347 28.746C-1.79001 17.5503 4.14815 6.30577 14.6834 1.85299C26.9061 -3.23048 40.9453 2.50265 46.0976 14.6815C51.2499 26.8603 45.5787 40.9071 33.4077 46.1128C30.4459 47.3643 27.2616 48.0062 24.0456 48ZM38.1964 21.4568C37.8159 21.4558 37.4508 21.6065 37.1822 21.8754L28.5016 30.542C27.9412 31.1015 27.9412 32.0088 28.5016 32.5683C29.062 33.1279 29.9706 33.1279 30.531 32.5683L39.2116 23.9007C39.6218 23.4909 39.7444 22.8747 39.5222 22.3395C39.2999 21.8042 38.7766 21.4554 38.1964 21.4557V21.4568ZM8.57163 22.3421C8.79303 21.8072 9.3151 21.4578 9.89478 21.4568C10.2756 21.4555 10.6411 21.6062 10.91 21.8754L19.5895 30.542C19.9645 30.9008 20.1159 31.434 19.9854 31.936C19.8549 32.438 19.4628 32.8303 18.9604 32.9617C18.4579 33.0931 17.9236 32.9431 17.5634 32.5694L8.88283 23.9018C8.47302 23.4924 8.35023 22.877 8.57163 22.3421ZM24.0456 16.9438C20.9541 16.9438 18.448 19.4462 18.448 22.533C18.448 25.6198 20.9541 28.1222 24.0456 28.1222C27.137 28.1222 29.6431 25.6198 29.6431 22.533C29.6431 21.0506 29.0534 19.629 28.0036 18.5808C26.9539 17.5327 25.5301 16.9438 24.0456 16.9438ZM21.3203 22.5301C21.3199 24.0334 22.54 25.2525 24.0456 25.2531C25.551 25.2519 26.7712 24.0339 26.773 22.5308C26.773 21.0275 25.5526 19.8087 24.047 19.8085C22.5415 19.8083 21.3207 21.0267 21.3203 22.5301Z" fill="#2D3B4E"/>
<defs>
<clipPath id="clip0_2_2349">
<rect width="107" height="36" fill="white" transform="translate(59 6)"/>
</clipPath>
</defs>
</svg>
