<svg width="17" height="18" viewBox="0 0 17 18" xmlns="http://www.w3.org/2000/svg">
<path fill-rule="evenodd" clip-rule="evenodd" d="M8.00917 0C7.45688 0 7.00917 0.447715 7.00917 1V7C7.00917 7.55228 7.45688 8 8.00917 8C8.56145 8 9.00917 7.55228 9.00917 7V1C9.00917 0.447715 8.56145 0 8.00917 0ZM10.4818 3.14628C10.1858 3.32617 10.0067 3.64392 10.0092 3.98502C10.0084 4.35156 10.2168 4.68783 10.5492 4.85644C13.1003 6.00828 14.4936 8.7391 13.9022 11.4281C13.3107 14.1171 10.8929 16.0443 8.08363 16.0658C5.27439 16.0874 2.82601 14.1975 2.19163 11.5179C1.55726 8.83825 2.90675 6.08641 5.43917 4.8956C5.78691 4.74982 6.01153 4.41414 6.00917 4.04377V3.83815C6.01114 3.5411 5.86178 3.26262 5.61089 3.09557C5.36 2.92853 5.04059 2.8949 4.75917 3.0059C1.32404 4.49661 -0.588635 8.12712 0.162028 11.7319C0.912692 15.3367 4.12437 17.9442 7.88136 17.9991C11.6384 18.054 14.9281 15.5415 15.7883 11.9603C16.6485 8.37902 14.8473 4.69423 11.4592 3.10381C11.1481 2.95031 10.7778 2.9664 10.4818 3.14628Z" />
</svg>
