<svg width="15" height="18" viewBox="0 0 15 18" xmlns="http://www.w3.org/2000/svg">
<path fill-rule="evenodd" clip-rule="evenodd" d="M3.00016 4.5C3.00016 6.98528 5.01488 9 7.50016 9C9.98545 9 12.0002 6.98528 12.0002 4.5C12.0002 2.01472 9.98545 0 7.50016 0C5.01488 0 3.00016 2.01472 3.00016 4.5ZM10.0002 4.5C10.0002 5.88071 8.88088 7 7.50016 7C6.11945 7 5.00016 5.88071 5.00016 4.5C5.00016 3.11929 6.11945 2 7.50016 2C8.88088 2 10.0002 3.11929 10.0002 4.5ZM1.00014 18C0.395635 18 -0.0706454 17.5269 0.00884802 16.9942C0.688841 12.4376 3.23519 10 7.5 10C11.7648 10 14.3112 12.4376 14.9912 16.9942C15.0706 17.5269 14.6044 18 13.9999 18H1.00014ZM2 16C2.7414 13.2624 4.53687 12 7.5 12C10.4631 12 12.2586 13.2624 13 16H2Z" />
</svg>
