<svg viewBox="0 0 22 28"  xmlns="http://www.w3.org/2000/svg">
<path fill-rule="evenodd" clip-rule="evenodd" d="M4.76823 6L3.06112 1.34425C2.82183 0.691644 3.3049 0 4 0H15C15.6951 0 16.1782 0.691644 15.9389 1.34425L14.2318 6H14.5C15.8807 6 17 7.11929 17 8.5C17 9.55282 16.3492 10.4536 15.4279 10.8221C19.2054 15.7538 19.9868 19.2696 17.7724 21.3693C14.055 24.894 4.89082 24.8597 1.20974 21.3693C-0.983777 19.2895 -0.194307 15.7745 3.57815 10.8245C2.65367 10.4576 2 9.55514 2 8.5C2 7.11929 3.11929 6 4.5 6H4.76823ZM12 3V2H13.5682L12.1016 6H6.89844L5.43177 2H10V3C10 3.55228 10.4477 4 11 4C11.5523 4 12 3.55228 12 3ZM4.5 8H14.5C14.7761 8 15 8.22386 15 8.5C15 8.77614 14.7761 9 14.5 9H4.5C4.22386 9 4 8.77614 4 8.5C4 8.22386 4.22386 8 4.5 8ZM2.58586 19.918C1.27029 18.6706 2.0913 15.7715 5.98634 11H13.017C16.922 15.7542 17.736 18.6477 16.3962 19.918C13.463 22.6993 5.50791 22.6887 2.58586 19.918Z"  />
<path fill-rule="evenodd" clip-rule="evenodd" d="M22.5002 20C22.814 20.4178 23 20.9372 23 21.5C23 22.8807 21.8807 24 20.5 24H16.5C15.1193 24 14 22.8807 14 21.5C14 20.9372 14.186 20.4178 14.4998 20C14.186 19.5822 14 19.0628 14 18.5C14 17.9372 14.186 17.4178 14.4998 17C14.186 16.5822 14 16.0628 14 15.5C14 14.9372 14.186 14.4178 14.4998 14C14.186 13.5822 14 13.0628 14 12.5C14 11.1193 15.1193 10 16.5 10H20.5C21.8807 10 23 11.1193 23 12.5C23 13.0628 22.814 13.5822 22.5002 14C22.814 14.4178 23 14.9372 23 15.5C23 16.0628 22.814 16.5822 22.5002 17C22.814 17.4178 23 17.9372 23 18.5C23 19.0628 22.814 19.5822 22.5002 20ZM20.5 21H16.5C16.2239 21 16 21.2239 16 21.5C16 21.7761 16.2239 22 16.5 22H20.5C20.7761 22 21 21.7761 21 21.5C21 21.2239 20.7761 21 20.5 21ZM21 18.5C21 18.7761 20.7761 19 20.5 19H16.5C16.2239 19 16 18.7761 16 18.5C16 18.2239 16.2239 18 16.5 18H20.5C20.7761 18 21 18.2239 21 18.5ZM16.5 16H20.5C20.7761 16 21 15.7761 21 15.5C21 15.2239 20.7761 15 20.5 15H16.5C16.2239 15 16 15.2239 16 15.5C16 15.7761 16.2239 16 16.5 16ZM21 12.5C21 12.7761 20.7761 13 20.5 13H16.5C16.2239 13 16 12.7761 16 12.5C16 12.2239 16.2239 12 16.5 12H20.5C20.7761 12 21 12.2239 21 12.5Z" />
<path fill-rule="evenodd" clip-rule="evenodd" d="M7.91171 17.1216C7.42198 17.1415 7.02885 17.4697 7 17.8827C7.00448 18.6995 7.58594 19.4354 8.47793 19.7531V20.1255C8.46092 20.3378 8.54366 20.5473 8.70825 20.7085C8.87778 20.881 9.12448 20.9866 9.38964 21H9.46641C9.97127 21.001 10.3908 20.6719 10.4261 20.247V19.745C10.9821 19.5471 11.4328 19.1841 11.6929 18.7248C11.9755 18.2583 12.0239 17.7156 11.8273 17.2187C11.6715 16.8621 11.3985 16.5504 11.0403 16.32C11.5452 16.321 11.9647 15.9919 12 15.5669V15.4617C11.9897 14.6455 11.3994 13.9144 10.5029 13.6075V12.8707C10.5199 12.6584 10.4371 12.4489 10.2726 12.2877C10.099 12.1162 9.84862 12.0135 9.58157 12.0043C9.32373 11.9818 9.06607 12.0483 8.86723 12.1886C8.66839 12.3289 8.54528 12.5311 8.52591 12.7492V13.6075C7.96717 13.7965 7.51205 14.1545 7.24952 14.6115C6.97243 15.0899 6.94119 15.6434 7.16315 16.1418C7.33178 16.5392 7.64395 16.8818 8.05566 17.1216H7.91171ZM10 17.5804C9.97876 17.8015 9.82353 17.9761 9.62698 18C9.39467 18 9.20635 17.7881 9.20635 17.5268C9.18786 17.3313 9.11574 17.1472 9 17C9.19469 17.0717 9.39832 17.1078 9.60317 17.1071C9.7163 17.114 9.82217 17.172 9.89683 17.2679C9.95068 17.3536 9.97598 17.4579 9.96825 17.5625L10 17.5804ZM9.45259 15C9.22037 15 9.03212 15.2081 9.03212 15.4649L9.00039 15.4474C8.99523 15.5794 9.04208 15.7073 9.12882 15.7982C9.21556 15.8891 9.33367 15.9339 9.45259 15.9211C9.63739 15.9209 9.82143 15.9474 10 16C9.9066 15.8414 9.86207 15.6537 9.87306 15.4649C9.87306 15.2081 9.68481 15 9.45259 15Z" />
<path fill-rule="evenodd" clip-rule="evenodd" d="M16.5 12H20.5C20.7761 12 21 12.2239 21 12.5C21 12.7761 20.7761 13 20.5 13H16.5C16.2239 13 16 12.7761 16 12.5C16 12.2239 16.2239 12 16.5 12Z" fill="white"/>
<path fill-rule="evenodd" clip-rule="evenodd" d="M16.5 15H20.5C20.7761 15 21 15.2239 21 15.5C21 15.7761 20.7761 16 20.5 16H16.5C16.2239 16 16 15.7761 16 15.5C16 15.2239 16.2239 15 16.5 15Z" fill="white"/>
<path fill-rule="evenodd" clip-rule="evenodd" d="M16.5 18H20.5C20.7761 18 21 18.2239 21 18.5C21 18.7761 20.7761 19 20.5 19H16.5C16.2239 19 16 18.7761 16 18.5C16 18.2239 16.2239 18 16.5 18Z" fill="white"/>
<path fill-rule="evenodd" clip-rule="evenodd" d="M16.5 21H20.5C20.7761 21 21 21.2239 21 21.5C21 21.7761 20.7761 22 20.5 22H16.5C16.2239 22 16 21.7761 16 21.5C16 21.2239 16.2239 21 16.5 21Z" fill="white"/>
</svg>
