<svg width="17" height="17" viewBox="0 0 17 17"  xmlns="http://www.w3.org/2000/svg">
<path fill-rule="evenodd" clip-rule="evenodd" d="M2.54303 14.9878H11.2451C11.4137 14.9878 11.5308 14.8947 11.5529 14.7809L13.989 2.98766C13.7412 2.99329 13.5097 3.0241 13.2928 3.07868C12.7427 3.21715 12.4774 3.38076 12.0731 3.82186C12.0191 3.88069 11.8316 4.08241 11.7918 4.12592C11.5925 4.34377 11.4984 4.46797 11.3945 4.65681C11.188 5.03198 10.9669 5.64007 10.7058 6.63654C10.6376 6.89684 10.6024 7.26698 10.6069 7.71561C10.612 8.22453 10.6656 8.78578 10.7581 9.41234C10.751 9.36411 10.9513 10.5629 10.9525 10.8254C10.9525 10.7972 10.9524 10.7953 10.9538 10.8137C10.9656 10.9645 10.9699 11.0473 10.9664 11.1851C10.94 12.2112 10.3524 13.033 9.36134 13.5096C9.29179 13.5421 9.29179 13.5421 9.21974 13.5722C8.40954 13.9006 7.70555 13.7665 7.02056 13.4045C6.85617 13.3177 6.37784 13.0217 6.29123 12.9742C5.94523 12.7844 5.6212 12.6923 5.12524 12.6923C3.8246 12.6923 3.36188 13.0432 2.89898 13.8644C2.90159 13.8597 2.82464 14.0683 2.73025 14.369C2.70114 14.4618 2.6701 14.563 2.63375 14.6836C2.60036 14.7958 2.57034 14.8966 2.54303 14.9878ZM8.88235 9.86378C8.86887 9.85566 8.83783 9.83666 8.79548 9.81083C8.64232 8.80438 8.47233 7.26989 8.77112 6.1296C9.43579 3.59298 9.91803 3.21304 10.5988 2.47042C11.2296 1.78218 11.8246 1.38585 12.8046 1.13917C13.5948 0.940294 14.4572 0.93612 15.3918 1.12665C15.9352 1.2389 16.2831 1.76793 16.1714 2.3088L13.5115 15.1855C13.3105 16.2299 12.3574 16.9878 11.2451 16.9878H0C0.0375761 16.617 0.163463 15.8517 0.42395 15.0703C0.630587 14.4505 0.932983 13.2791 1.15674 12.8822C1.53718 12.2074 2.45402 10.6923 5.12524 10.6923C5.92676 10.6923 6.51233 10.8666 6.96206 11.0736C6.96325 11.0898 6.96456 11.107 6.966 11.1254C6.96701 11.1383 6.96652 11.1288 6.96772 11.0821L6.96788 11.0763C7.74406 11.435 8.11459 11.8899 8.49463 11.7071C9.09524 11.4183 8.95251 11.1206 8.95251 10.8276C8.95251 10.7275 8.87799 10.3505 8.79811 9.82808C8.83518 9.84149 8.86471 9.85495 8.88877 9.86762L8.88235 9.86378Z" />
</svg>
