<svg width="32" height="32" viewBox="0 0 32 32"  xmlns="http://www.w3.org/2000/svg">
<path fill-rule="evenodd" clip-rule="evenodd" d="M13.3523 27.9782C13.6749 28.0496 14.0109 27.9432 14.2336 27.6992L16 25.7635L17.7665 27.6992C17.9891 27.9432 18.3252 28.0496 18.6477 27.9782C20.0923 27.6587 21.4592 27.0792 22.6897 26.2723C22.9641 26.0924 23.1223 25.7804 23.1054 25.4528L22.9741 22.909L25.484 23.0358C25.8151 23.0526 26.1297 22.8905 26.3083 22.6112C27.1092 21.3586 27.6776 19.9688 27.9809 18.5024C28.0476 18.1799 27.9375 17.8463 27.6919 17.627L25.8703 16L27.6919 14.3731C27.9375 14.1537 28.0476 13.8201 27.9809 13.4976C27.6776 12.0312 27.1092 10.6414 26.3083 9.38888C26.1297 9.10958 25.8151 8.9475 25.484 8.96423L22.9741 9.09105L23.1054 6.54726C23.1223 6.21963 22.9641 5.90764 22.6897 5.72775C21.4592 4.92087 20.0923 4.34138 18.6477 4.02181C18.3252 3.95047 17.9891 4.05689 17.7665 4.30088L16 6.2366L14.2336 4.30088C14.0109 4.05689 13.6749 3.95047 13.3523 4.02181C11.9078 4.34138 10.5408 4.92087 9.3103 5.72775C9.03595 5.90764 8.8777 6.21963 8.89462 6.54726L9.02595 9.09105L6.51604 8.96423C6.18496 8.9475 5.87034 9.10958 5.69176 9.38888C4.89089 10.6414 4.32247 12.0312 4.01916 13.4976C3.95246 13.8201 4.06259 14.1537 4.30819 14.3731L6.12974 16L4.30819 17.627C4.06259 17.8463 3.95246 18.1799 4.01916 18.5024C4.32247 19.9688 4.89089 21.3586 5.69176 22.6112C5.87034 22.8905 6.18496 23.0526 6.51604 23.0358L9.02595 22.909L8.89462 25.4528C8.8777 25.7804 9.03595 26.0924 9.3103 26.2723C10.5408 27.0792 11.9078 27.6587 13.3523 27.9782ZM16.6819 23.7718C16.3158 23.3707 15.6842 23.3707 15.3182 23.7718L13.2403 26.0489C12.3719 25.8095 11.5411 25.4578 10.7664 25.0038L10.9224 21.9831C10.9506 21.4368 10.5002 20.986 9.95393 21.0136L6.97374 21.1642C6.52262 20.3729 6.17669 19.5249 5.94624 18.6393L8.13034 16.6885C8.54123 16.3215 8.54123 15.6786 8.13034 15.3116L5.94624 13.3608C6.17669 12.4751 6.52262 11.6271 6.97374 10.8359L9.95393 10.9865C10.5002 11.0141 10.9506 10.5632 10.9224 10.017L10.7664 6.99628C11.5411 6.54224 12.3719 6.1905 13.2403 5.95119L15.3182 8.22822C15.6842 8.62936 16.3158 8.62936 16.6819 8.22822L18.7598 5.95119C19.6282 6.1905 20.4589 6.54224 21.2336 6.99628L21.0777 10.017C21.0495 10.5632 21.4998 11.0141 22.0461 10.9865L25.0263 10.8359C25.4774 11.6271 25.8234 12.4751 26.0538 13.3608L23.8697 15.3116C23.4588 15.6786 23.4588 16.3215 23.8697 16.6885L26.0538 18.6393C25.8234 19.5249 25.4774 20.3729 25.0263 21.1642L22.0461 21.0136C21.4998 20.986 21.0495 21.4368 21.0777 21.9831L21.2336 25.0038C20.4589 25.4578 19.6282 25.8095 18.7598 26.0489L16.6819 23.7718ZM16 20C13.7909 20 12 18.2091 12 16C12 13.7909 13.7909 12 16 12C18.2091 12 20 13.7909 20 16C20 18.2091 18.2091 20 16 20ZM18 16C18 17.1046 17.1046 18 16 18C14.8954 18 14 17.1046 14 16C14 14.8954 14.8954 14 16 14C17.1046 14 18 14.8954 18 16Z"/>
</svg>
