<svg width="32" height="32" viewBox="0 0 32 32" xmlns="http://www.w3.org/2000/svg">
<path fill-rule="evenodd" clip-rule="evenodd" d="M22.9999 23.0807V24H6.99994V8.00002H7.91932C8.14639 8.00002 8.3667 7.92274 8.54401 7.78089C8.97527 7.43588 9.04519 6.80659 8.70019 6.37533L6.78081 3.97611C6.73468 3.91845 6.6823 3.86607 6.62464 3.81994C6.19337 3.47493 5.56408 3.54485 5.21907 3.97611L3.2997 6.37533C3.15785 6.55264 3.08057 6.77295 3.08057 7.00002C3.08057 7.55231 3.52828 8.00002 4.08057 8.00002H4.99994V24C4.99994 25.1046 5.89537 26 6.99994 26H22.9999V26.9194C22.9999 27.1465 23.0772 27.3668 23.2191 27.5441C23.5641 27.9754 24.1934 28.0453 24.6246 27.7003L27.0239 25.7809C27.0815 25.7348 27.1339 25.6824 27.18 25.6247C27.525 25.1935 27.4551 24.5642 27.0239 24.2192L24.6246 22.2998C24.4473 22.1579 24.227 22.0807 23.9999 22.0807C23.4477 22.0807 22.9999 22.5284 22.9999 23.0807ZM10.9999 11C10.9999 11.5523 11.4477 12 11.9999 12H20.9999C21.5522 12 21.9999 11.5523 21.9999 11C21.9999 10.4477 21.5522 10 20.9999 10H11.9999C11.4477 10 10.9999 10.4477 10.9999 11ZM11.9999 16C11.4477 16 10.9999 15.5523 10.9999 15C10.9999 14.4477 11.4477 14 11.9999 14H17.9999C18.5522 14 18.9999 14.4477 18.9999 15C18.9999 15.5523 18.5522 16 17.9999 16H11.9999ZM10.9999 19C10.9999 19.5523 11.4477 20 11.9999 20H19.9999C20.5522 20 20.9999 19.5523 20.9999 19C20.9999 18.4477 20.5522 18 19.9999 18H11.9999C11.4477 18 10.9999 18.4477 10.9999 19Z" />
</svg>
