<svg width="32" height="32" viewBox="0 0 32 32" fill="none" xmlns="http://www.w3.org/2000/svg">
<path fill-rule="evenodd" clip-rule="evenodd" d="M5.38751 18.9045C6.40887 22.645 9.35498 25.5911 13.0955 26.6125C13.3542 27.4175 14.1091 28 15 28H17C17.8909 28 18.6458 27.4175 18.9045 26.6125C22.645 25.5911 25.5911 22.645 26.6125 18.9045C27.4175 18.6458 28 17.8909 28 17V15C28 14.1091 27.4175 13.3542 26.6125 13.0955C25.5911 9.35498 22.645 6.40887 18.9045 5.38751C18.6458 4.58255 17.8909 4 17 4H15C14.1091 4 13.3542 4.58255 13.0955 5.38751C9.35498 6.40887 6.40887 9.35498 5.38751 13.0955C4.58255 13.3542 4 14.1091 4 15V17C4 17.8909 4.58255 18.6458 5.38751 18.9045ZM24.4879 19C23.584 21.5572 21.5572 23.584 19 24.4879V21.1973C19.9109 20.6704 20.6704 19.9109 21.1973 19H24.4879ZM24.4879 13C23.584 10.4428 21.5572 8.41597 19 7.51212V10.8027C19.9109 11.3296 20.6704 12.0891 21.1973 13H24.4879ZM7.51212 13C8.41597 10.4428 10.4428 8.41597 13 7.51212V10.8027C12.0891 11.3296 11.3296 12.0891 10.8027 13H7.51212ZM7.51212 19C8.41597 21.5572 10.4428 23.584 13 24.4879V21.1973C12.0891 20.6704 11.3296 19.9109 10.8027 19H7.51212ZM15 19C14.5686 19 14.1692 19.1366 13.8425 19.3688C13.3568 19.0571 12.9429 18.6432 12.6312 18.1575C12.8634 17.8308 13 17.4314 13 17V15C13 14.5686 12.8634 14.1692 12.6312 13.8425C12.9429 13.3568 13.3568 12.9429 13.8425 12.6312C14.1692 12.8634 14.5686 13 15 13H17C17.4314 13 17.8308 12.8634 18.1575 12.6312C18.6432 12.9429 19.0571 13.3568 19.3688 13.8425C19.1366 14.1692 19 14.5686 19 15V17C19 17.4314 19.1366 17.8308 19.3688 18.1575C19.0571 18.6432 18.6432 19.0571 18.1575 19.3688C17.8308 19.1366 17.4314 19 17 19H15ZM21 15V17H26V15H21ZM6 17V15H11V17H6ZM17 6H15V11H17V6ZM15 21H17V26H15V21Z" fill="#2D3B4E" fill-opacity="0.5"/>
</svg>
