<svg width="34" height="34" viewBox="0 0 34 34" fill="none" xmlns="http://www.w3.org/2000/svg">
<g clip-path="url(#clip0_2_1778)">
<rect width="34" height="34" rx="17" fill="#2D3B4E" fill-opacity="0.05"/>
<path fill-rule="evenodd" clip-rule="evenodd" fill="#2d3b4e" d="M17 15.707L20.879 11.828C21.236 11.4709 21.8149 11.4709 22.172 11.828C22.529 12.185 22.529 12.7639 22.172 13.121L18.293 16.9999L22.172 20.8789C22.529 21.236 22.529 21.8149 22.172 22.1719C21.8149 22.529 21.236 22.529 20.879 22.1719L17 18.2929L13.121 22.1719C12.764 22.529 12.1851 22.529 11.828 22.1719C11.471 21.8149 11.471 21.236 11.828 20.8789L15.707 16.9999L11.828 13.121C11.471 12.7639 11.471 12.185 11.828 11.828C12.1851 11.4709 12.764 11.4709 13.121 11.828L17 15.707Z" />
</g>
<defs>
<clipPath id="clip0_2_1778">
<rect width="34" height="34" />
</clipPath>
</defs>
</svg>
